<svg width="493" height="242" viewBox="0 0 493 242" fill="none" xmlns="http://www.w3.org/2000/svg">
<rect width="493" height="242" fill="#1E1E1E"/>
<rect width="493" height="242" fill="white"/>
<path d="M165.285 59C191.578 59 212.894 80.3152 212.894 106.608C212.893 117.61 209.159 127.739 202.892 135.801L192.388 124.284C195.64 119.176 197.525 113.113 197.525 106.608C197.525 88.4054 182.768 73.6484 164.565 73.6484H161.327C143.124 73.6487 128.368 88.4056 128.368 106.608C128.368 124.811 143.124 139.567 161.327 139.567H164.565C167.763 139.567 170.853 139.11 173.776 138.261L184.602 150.131C178.698 152.755 172.162 154.216 165.285 154.216H160.608C134.315 154.216 113 132.901 113 106.608C113 80.3152 134.315 59 160.608 59H165.285Z" fill="#3A7CA5"/>
<path d="M169.8 118.051L171.142 111.019L159.807 98.9405C162.47 97.9153 165.466 97.3286 168.589 97.5006C179.392 98.0958 187.633 106.659 186.992 116.825C186.897 118.326 186.523 119.978 186.072 121.457L206.999 143.345C210.775 147.4 210.764 153.25 206.888 156.464C203.012 159.678 196.688 159.081 192.821 155.02L172.412 133.413C170.409 133.888 168.42 134.196 166.277 134.078C155.474 133.483 147.243 124.751 147.879 114.671C148.058 111.836 148.842 109.373 150.154 107.021L161.824 119.452L169.8 118.051Z" fill="#2F6690"/>
<path d="M250.1 150C249.233 150 248.433 149.733 247.7 149.2C247.033 148.667 246.7 147.9 246.7 146.9V134.3C246.7 131.367 246.033 129.2 244.7 127.8C243.433 126.4 241.733 125.7 239.6 125.7C236.867 125.7 234.867 126.6 233.6 128.4C232.4 130.133 231.8 132.067 231.8 134.2V146.9C231.8 147.9 231.433 148.667 230.7 149.2C230.033 149.733 229.267 150 228.4 150C227.533 150 226.733 149.733 226 149.2C225.333 148.667 225 147.9 225 146.9V123.4C225 122.267 225.333 121.433 226 120.9C226.733 120.3 227.533 120 228.4 120C229.267 120 230.033 120.3 230.7 120.9C231.433 121.433 231.8 122.267 231.8 123.4C232.933 122.267 234.4 121.333 236.2 120.6C238 119.867 239.7 119.5 241.3 119.5C245.033 119.5 248 120.7 250.2 123.1C252.4 125.5 253.5 129.033 253.5 133.7V146.9C253.5 147.9 253.133 148.667 252.4 149.2C251.667 149.733 250.9 150 250.1 150ZM274.535 150C271.602 150 268.935 149.333 266.535 148C264.202 146.667 262.368 144.833 261.035 142.5C259.702 140.1 259.035 137.433 259.035 134.5C259.035 131.633 259.702 129.067 261.035 126.8C262.368 124.533 264.202 122.767 266.535 121.5C268.935 120.167 271.602 119.5 274.535 119.5C277.468 119.5 280.102 120.167 282.435 121.5C284.768 122.767 286.602 124.533 287.935 126.8C289.335 129.067 290.035 131.633 290.035 134.5C290.035 137.433 289.335 140.1 287.935 142.5C286.602 144.833 284.768 146.667 282.435 148C280.102 149.333 277.468 150 274.535 150ZM274.535 143.8C277.135 143.8 279.235 142.967 280.835 141.3C282.435 139.567 283.235 137.3 283.235 134.5C283.235 131.833 282.435 129.7 280.835 128.1C279.235 126.5 277.135 125.7 274.535 125.7C271.868 125.7 269.735 126.5 268.135 128.1C266.602 129.7 265.835 131.833 265.835 134.5C265.835 137.3 266.602 139.567 268.135 141.3C269.735 142.967 271.868 143.8 274.535 143.8ZM299.496 150C298.629 150 297.829 149.733 297.096 149.2C296.429 148.667 296.096 147.9 296.096 146.9V122.9C296.096 121.767 296.429 120.933 297.096 120.4C297.829 119.8 298.629 119.5 299.496 119.5C300.363 119.5 301.129 119.8 301.796 120.4C302.529 120.933 302.896 121.767 302.896 122.9V146.9C302.896 147.9 302.529 148.667 301.796 149.2C301.129 149.733 300.363 150 299.496 150ZM299.596 114C298.329 114 297.229 113.6 296.296 112.8C295.429 111.933 294.996 110.9 294.996 109.7C294.996 108.567 295.429 107.6 296.296 106.8C297.229 105.933 298.329 105.5 299.596 105.5C300.796 105.5 301.829 105.933 302.696 106.8C303.563 107.6 303.996 108.567 303.996 109.7C303.996 110.9 303.563 111.933 302.696 112.8C301.829 113.6 300.796 114 299.596 114ZM322.335 150C319.735 150 317.602 149.2 315.935 147.6C314.268 146 313.435 143.6 313.435 140.4V127.7C313.435 127.033 313.102 126.7 312.435 126.7H310.635C309.768 126.7 309.035 126.433 308.435 125.9C307.835 125.3 307.535 124.567 307.535 123.7C307.535 122.767 307.835 122 308.435 121.4C309.035 120.8 309.768 120.5 310.635 120.5H312.435C313.102 120.5 313.435 120.167 313.435 119.5V111.1C313.435 110.167 313.735 109.433 314.335 108.9C315.002 108.3 315.802 108 316.735 108C317.735 108 318.535 108.3 319.135 108.9C319.802 109.433 320.135 110.167 320.135 111.1V119.5C320.135 120.167 320.468 120.5 321.135 120.5H326.535C327.335 120.5 328.035 120.8 328.635 121.4C329.235 122 329.535 122.767 329.535 123.7C329.535 124.567 329.235 125.3 328.635 125.9C328.102 126.433 327.368 126.7 326.435 126.7H321.135C320.468 126.7 320.135 127.033 320.135 127.7V139.5C320.135 142.3 321.268 143.7 323.535 143.7C324.202 143.7 324.902 143.6 325.635 143.4C326.368 143.2 326.868 143.1 327.135 143.1C328.068 143.1 328.768 143.4 329.235 144C329.768 144.6 330.035 145.3 330.035 146.1C330.035 146.7 329.868 147.3 329.535 147.9C329.202 148.433 328.668 148.833 327.935 149.1C327.202 149.367 326.268 149.567 325.135 149.7C324.068 149.9 323.135 150 322.335 150ZM348.959 150C343.959 150 340.059 148.567 337.259 145.7C334.459 142.833 333.059 138.967 333.059 134.1C333.059 129.833 334.459 126.333 337.259 123.6C340.125 120.867 343.792 119.5 348.259 119.5C352.592 119.5 356.059 120.767 358.659 123.3C361.259 125.767 362.559 128.833 362.559 132.5C362.559 133.967 362.159 135.067 361.359 135.8C360.625 136.533 359.659 136.9 358.459 136.9H341.059C340.392 136.9 340.159 137.267 340.359 138C340.892 139.867 341.959 141.333 343.559 142.4C345.225 143.4 347.092 143.9 349.159 143.9C350.692 143.9 352.159 143.7 353.559 143.3C355.025 142.9 356.292 142.3 357.359 141.5C357.692 141.233 358.125 141.1 358.659 141.1C359.392 141.1 360.059 141.433 360.659 142.1C361.259 142.7 361.559 143.433 361.559 144.3C361.559 144.7 361.492 145.1 361.359 145.5C361.225 145.9 360.925 146.3 360.459 146.7C358.725 147.967 356.859 148.833 354.859 149.3C352.925 149.767 350.959 150 348.959 150ZM354.759 131.7C355.159 131.7 355.359 131.5 355.359 131.1C355.359 129.567 354.659 128.233 353.259 127.1C351.925 125.967 350.259 125.4 348.259 125.4C346.525 125.4 344.859 125.867 343.259 126.8C341.725 127.733 340.792 128.967 340.459 130.5C340.459 130.5 340.459 130.533 340.459 130.6C340.392 130.867 340.359 131.1 340.359 131.3C340.425 131.5 340.725 131.6 341.259 131.6L354.759 131.7ZM374.655 150.5C373.388 150.5 372.288 150.067 371.355 149.2C370.488 148.4 370.055 147.433 370.055 146.3C370.055 145.1 370.488 144.1 371.355 143.3C372.288 142.433 373.388 142 374.655 142C375.855 142 376.888 142.433 377.755 143.3C378.621 144.1 379.055 145.1 379.055 146.3C379.055 147.433 378.621 148.4 377.755 149.2C376.888 150.067 375.855 150.5 374.655 150.5Z" fill="#3A7CA5"/>
</svg>
