<svg width="156" height="156" viewBox="0 0 156 156" fill="none" xmlns="http://www.w3.org/2000/svg">
<path d="M81.5645 0C122.582 0 155.833 33.2512 155.833 74.2686C155.833 91.4318 150.009 107.234 140.232 119.811L123.845 101.842C128.918 93.8731 131.859 84.4148 131.859 74.2686C131.859 45.8719 108.839 22.8516 80.4424 22.8516H75.3906C46.9942 22.8518 23.9746 45.8721 23.9746 74.2686C23.9746 102.665 46.9942 125.685 75.3906 125.686H80.4424C85.4304 125.686 90.2519 124.973 94.8125 123.648L111.701 142.166C102.491 146.26 92.2937 148.537 81.5645 148.537H74.2686C33.2512 148.537 2.47428e-05 115.286 0 74.2686C0 33.2512 33.2512 0 74.2686 0H81.5645Z" fill="#FEFEFE"/>
<path d="M88.6086 92.1192L90.7009 81.149L73.0196 62.3072C77.1729 60.7079 81.8465 59.7926 86.7183 60.061C103.571 60.9895 116.428 74.3483 115.427 90.2076C115.279 92.5493 114.696 95.1257 113.992 97.4325L146.639 131.577C152.528 137.904 152.512 147.031 146.465 152.044C140.419 157.058 130.553 156.126 124.521 149.792L92.6825 116.084C89.5584 116.826 86.4553 117.306 83.1123 117.122C66.2594 116.193 53.419 102.572 54.4116 86.8461C54.6907 82.4248 55.9128 78.5814 57.9603 74.9128L76.166 94.3052L88.6086 92.1192Z" fill="#FEFEFE"/>
</svg>
