<!DOCTYPE svg PUBLIC "-//W3C//DTD SVG 1.1//EN" "http://www.w3.org/Graphics/SVG/1.1/DTD/svg11.dtd">
<!-- Uploaded to: SVG Repo, www.svgrepo.com, Transformed by: SVG Repo Mixer Tools -->
<svg width="800px" height="800px" viewBox="0 0 24 24" fill="none" xmlns="http://www.w3.org/2000/svg">
<g id="SVGRepo_bgCarrier" stroke-width="0"/>
<g id="SVGRepo_tracerCarrier" stroke-linecap="round" stroke-linejoin="round"/>
<g id="SVGRepo_iconCarrier"> <path fill-rule="evenodd" clip-rule="evenodd" d="M3 4C3 3.44772 3.44772 3 4 3H12H20C20.5523 3 21 3.44772 21 4V12V20C21 20.5523 20.5523 21 20 21H12H4C3.44772 21 3 20.5523 3 20V12V4ZM5 5V11H11V5H5ZM13 5V11H19V5H13ZM19 13H13V19H19V13ZM11 19V13H5V19H11Z" fill="#fefefe"/> </g>
</svg>